<svg xmlns="http://www.w3.org/2000/svg" viewBox="0 0 200 130">
  <!-- Sega oval background -->
  <ellipse cx="100" cy="65" rx="96" ry="58" fill="#0066b3"/>
  <!-- Inner oval ring -->
  <ellipse cx="100" cy="65" rx="86" ry="48" fill="none" stroke="white" stroke-width="5"/>
  <!-- S -->
  <path d="M34 50 C34 44 39 40 46 40 C53 40 57 44 57 49 C57 54 53 57 46 59 C39 61 35 64 35 70 C35 76 40 80 48 80 C56 80 61 76 61 71 L55 71 C55 74 52 76 48 76 C44 76 41 74 41 70 C41 66 44 64 51 62 C58 60 63 56 63 49 C63 43 57 36 46 36 C35 36 28 42 28 50 Z" fill="white"/>
  <!-- E -->
  <path d="M68 37 L68 80 L92 80 L92 74 L74 74 L74 62 L90 62 L90 56 L74 56 L74 43 L92 43 L92 37 Z" fill="white"/>
  <!-- G -->
  <path d="M130 58 L113 58 L113 64 L124 64 L124 72 C121 75 117 77 112 77 C103 77 97 70 97 58 C97 47 103 40 112 40 C119 40 124 44 126 50 L132 48 C129 40 121 34 112 34 C99 34 91 44 91 58 C91 73 99 83 112 83 C120 83 127 79 132 73 L132 58 Z" fill="white"/>
  <!-- A -->
  <path d="M152 37 L138 80 L144 80 L148 68 L164 68 L168 80 L174 80 L160 37 Z M150 62 L156 44 L162 62 Z" fill="white"/>
</svg>
